<?xml version="1.0" standalone="no"?>
<!DOCTYPE svg PUBLIC "-//W3C//DTD SVG 20010904//EN"
 "http://www.w3.org/TR/2001/REC-SVG-20010904/DTD/svg10.dtd">
<svg version="1.0" xmlns="http://www.w3.org/2000/svg"
 width="550.000000pt" height="550.000000pt" viewBox="0 0 550.000000 550.000000"
 preserveAspectRatio="xMidYMid meet">
<metadata>
Created by potrace 1.11, written by Peter Selinger 2001-2013
</metadata>
<g transform="translate(0.000000,550.000000) scale(0.100000,-0.100000)"
fill="#000000" stroke="none">
<path d="M2492 4969 c-71 -35 -100 -117 -68 -192 22 -53 -44 -13 731 -442 187
-103 383 -212 435 -241 52 -30 99 -55 105 -56 5 -2 -665 -5 -1490 -8 l-1500
-5 -65 -22 c-199 -68 -361 -232 -423 -428 l-22 -70 0 -1235 0 -1235 22 -70
c63 -200 228 -365 428 -428 l70 -22 2035 0 2035 0 70 22 c200 63 365 228 428
428 l22 70 0 1235 0 1235 -22 70 c-62 196 -227 363 -423 427 -57 18 -95 22
-298 26 l-233 4 -192 107 c-192 107 -292 163 -677 379 -113 63 -243 136 -290
162 -47 26 -168 93 -270 150 -319 179 -323 181 -408 139z m2311 -1288 c62 -30
128 -96 158 -158 l24 -48 0 -1205 0 -1205 -24 -50 c-32 -63 -99 -131 -159
-158 l-47 -22 -2005 0 -2005 0 -47 22 c-60 27 -134 101 -161 161 l-22 47 0
1205 0 1205 23 48 c42 85 130 156 217 178 17 4 923 6 2015 6 l1985 -2 48 -24z"/>
<path d="M3405 3220 c-243 -38 -490 -189 -630 -385 -396 -554 -121 -1319 539
-1497 118 -32 355 -32 475 1 346 93 616 371 697 717 27 115 25 339 -5 449 -26
98 -97 248 -155 329 -122 170 -332 313 -541 366 -92 24 -287 34 -380 20z m335
-339 c193 -60 361 -229 423 -426 17 -55 22 -94 22 -185 0 -134 -21 -214 -82
-320 -77 -132 -220 -246 -368 -293 -99 -31 -271 -31 -370 0 -200 63 -365 228
-428 428 -31 99 -31 271 0 370 43 137 138 263 257 343 81 54 158 87 239 102
78 14 232 4 307 -19z"/>
<path d="M925 3056 c-67 -29 -105 -106 -91 -181 9 -47 59 -102 104 -115 25 -8
209 -10 554 -8 504 3 517 4 544 24 44 32 66 68 71 116 7 58 -15 108 -63 144
l-37 29 -526 2 c-422 2 -532 0 -556 -11z"/>
<path d="M925 2416 c-67 -29 -105 -106 -91 -181 9 -47 59 -102 104 -115 25 -8
209 -10 554 -8 504 3 517 4 544 24 53 39 69 71 69 134 0 63 -16 95 -69 134
-27 21 -40 21 -554 23 -423 2 -533 0 -557 -11z"/>
<path d="M925 1776 c-67 -29 -105 -106 -91 -181 9 -47 59 -102 104 -115 25 -8
209 -10 554 -8 504 3 517 4 544 24 44 32 66 68 71 116 7 58 -15 108 -63 144
l-37 29 -526 2 c-422 2 -532 0 -556 -11z"/>
</g>
</svg>
